<?xml version="1.0" encoding="UTF-8"?>
<svg xmlns="http://www.w3.org/2000/svg" viewBox="0 0 540 1080">
  <defs>
    <style>
      .cls-1 {
        fill: #360d1e;
      }
    </style>
  </defs>
  <g id="u">
    <path class="cls-1" d="M381.39,152.96c5.93,14.47,7.64,35.96-9.39,44.05-23.56,10.14-51.67-1.25-46.59-29.94.74-4.89,1.97-9.5,3.78-14.11,1.81,4.61,3,9.23,4.38,13.53,2.28,7.06,4.46,14.05,11.42,16.11,5.4,1.74,15.2,1.75,20.6.02,11.39-4.08,11.15-19.58,15.79-29.67h0Z"/>
  </g>
  <g id="b">
    <path class="cls-1" d="M396.71,134.94c-12.56-1.92-25.12-3.01-37.73-4.19-40.15-3.25-81.28-4.38-121.51-4.07.67,21.09-2.11,45.87,13.42,63.79,9.24,9.86,26.06,10.68,36.71,2.66,14.17-12.84,13.31-33.03,11.31-50.6,7.44-.24,14.91-.55,22.35-.94,24.54-1.29,51.23-3.09,75.45-6.65ZM283.73,182.02c-3.33,3.05-7.2,4.19-11.82,3.87-17.3-1.41-17.69-25.67-17.73-42.66,14.21,0,28.45-.2,42.66-.67-2,14.17-3.6,29.23-13.11,39.45Z"/>
  </g>
  <g id="c">
    <path class="cls-1" d="M384.32,102.88c-67.68-73.93-189.58-29.88-188.28,71.25,3.31,84.1,99.11,129.42,167.75,81.54,9.31-6.39,17.64-14.32,24.94-23.27-11.63,20.34-30.41,36.57-52.24,45.54-88.44,36.08-179.61-48.86-152.43-139.93,26.77-89.81,146.21-113.62,200.25-35.14h0Z"/>
  </g>
  <g id="n">
    <path class="cls-1" d="M352.18,524.33c-7.79-5.36-16.87-7.55-25.95-8.81-22.58-3.05-49.58-3.33-67.08,13.97-3.09,3.13-5.56,6.61-7.59,10.25-.35-11.86-1.72-23.6-6.11-35.26-7.51,20.08-6.3,40.47-5.83,61.25.74,20.51,2.15,40.93,5.83,61.21,2.9-16.08,4.42-32.21,5.24-48.45.86-5.01,1.92-9.94,3.21-14.72,5.6-21.25,18.67-31.31,40.19-32.32,68.06-3.37,59.56,6.3,68.37,67.04,2.19-22.78,10.8-57.92-10.29-74.16Z"/>
  </g>
  <g id="k">
    <path class="cls-1" d="M344.57,941.4c-1.56,3.12-3.19,6.33-4.83,9.55,5.66,28.91,11.9,57.81,18.97,85.03-1.92-34.69-5.19-69.7-9.28-104.66-1.63,3.41-3.26,6.8-4.86,10.08ZM331.05,801.56c-3.29-19.69-6.69-39.37-10.37-58.98,16.79,16.12,33.85,31.97,51.5,47.2-16.48-21.56-33.81-42.34-51.46-62.89,17.14-16.51,33.19-33.81,45.71-54.44-21.64,11.39-40.11,26.61-57.8,42.97-17.49,16.71-33.77,34.2-46.41,55.14,16.32-8.57,30.8-19.33,44.54-31.15,5.56,47.63,12.37,95.06,20.31,142.29.63,3.63,1.28,7.32,1.93,10.99,3.97-7.32,8.15-14.75,12.54-22.25-3.28-23.11-6.8-46.11-10.48-68.88Z"/>
  </g>
  <g id="i">
    <path class="cls-1" d="M379,830.81c-10.93,36.94-26.48,71.83-43.27,106.28-17.15,34.28-35.43,67.81-58.19,98.91,10.9-36.96,26.45-71.84,43.27-106.28,17.18-34.26,35.47-67.79,58.19-98.91h0Z"/>
    <circle class="cls-1" cx="389.96" cy="808.64" r="11.93"/>
  </g>
  <g id="y">
    <path class="cls-1" d="M464.93,586.59c-10.72,12.25-22.74-6.3-27.16-15.26-7.32-14.56-11.98-29.86-15.69-45.32,5.95,14.68,12.05,29.47,20.62,42.42,2.66,3.99,5.48,7.71,8.81,10.92,1.21,1.06,4.19,3.37,5.4,3.17.59-.12.47-.12,1.1-.94,2-4.15,1.64-9.71,1.45-14.64-3.25-31.07-16.63-60.15-25.75-89.85-4.62-13.78-9.12-27.59-13.46-41.44-4.15,6.1-11.15,9.59-19.57,6.85-29.04-9.12-49.62-100.5-50.68-129.18,19.88,31.7,25.27,71.77,45.03,102.53,3.01,4.34,6.94,10.93,11.2,9.86,1.04-.26,1.64-3.25,1.92-5.09.9-10.96-.24-21.99-2.11-33.07-8.61-31.11-15.97-62.54-21.45-94.51,26.81,57.88,46.41,118.3,63.99,179.39,6.73,27.39,30.88,89.54,16.36,114.16Z"/>
  </g>
  <g id="h">
    <path class="cls-1" d="M247.34,482.26l-.27,2.97c-.2.98.39,1.96-1.6,2.94-2-.98-1.45-1.96-1.68-2.94l-.31-2.9c-2.5-19.61-6.34-41.64-18.08-57.57-2.58-3.13-2.66-3.17-4.3-3.44-1.57-.23-4.46.39-7.36,1.72-12.64,6.14-24.26,17.3-34.87,27.16-11.15,10.61-21.99,21.8-33.23,32.87-.04.04-.04.08-.08.12h-.04c8.06-60.31,35.96-142.41,73.93-190.16-3.4,48.53-26.22,108.83-53.03,156.62,1.6-2.15,3.21-4.27,4.85-6.38,12.17-14.4,30.25-37.3,51.46-36.67,5.99.51,11.07,4.54,14.4,9.31,13.54,19.88,11.62,43.87,10.21,66.33Z"/>
  </g>
  <g id="s">
    <path class="cls-1" d="M273.35,648.25c-38.27,9.86-22.35,64.94,14.56,49.05,2.82-1.42,4.91-3.46,7.03-6.03,9.91-13.04,13.53-28.87,22.51-43.95,6.1-10.77,15.28-20.87,26.69-26.37,10.7-5.71,25.48-4.8,33.95,4.47,7.46,7.33,13.68,20.33,6.34,29.98-1.74,2.51-4.05,4.38-6.35,6.07,3.46-4.55,5.89-9.92,5.01-14.76-.95-6.09-6.06-10.96-11-14.74-16.97-11.2-33.74,8.8-40.83,22.98-13.14,27.01-21.91,67.62-62.19,59.26-37.92-8.67-36.29-66.58,4.28-65.96h0Z"/>
  </g>
  <g id="oleg">
    <path class="cls-1" d="M182.45,462.18c-1,.97-2,1.94-3,2.92,18.05,6.34,29.86,16.6,29.86,28.2,0,19.23-32.35,34.87-72.1,34.87s-72.11-15.64-72.11-34.87,32.35-34.87,72.11-34.87c.4,0,.79.03,1.18.03.25-1.29.52-2.59.79-3.89-.66,0-1.31-.03-1.97-.03-41.9,0-75.99,17.39-75.99,38.75s33.38,38.75,75.99,38.75,75.99-17.02,75.99-38.75c0-12.73-12.1-24.05-30.75-31.11Z"/>
    <path class="cls-1" d="M201.44,825.14h-51.18c-49.09,0-82.08-30.83-82.08-76.71v-209.22h3.88v209.22c0,43.56,31.42,72.82,78.19,72.82h51.18v3.88Z"/>
    <path class="cls-1" d="M170.13,1037.94h-68.7c-18.33,0-33.25-14.92-33.25-33.25v-108.52c0-18.33,14.92-33.25,33.25-33.25h100v3.88h-100c-16.19,0-29.37,13.17-29.37,29.37v108.52c0,16.19,13.17,29.37,29.37,29.37h68.7c16.19,0,29.37-13.17,29.37-29.37v-33.61c0-16.19-13.17-29.37-29.37-29.37h-32.92v-3.88h32.92c18.33,0,33.25,14.92,33.25,33.25v33.61c0,18.33-14.92,33.25-33.25,33.25Z"/>
    <path class="cls-1" d="M201.44,783.68h-59.46c-25.55,0-46.34-25.1-46.34-55.95s20.79-55.95,46.34-55.95h59.46v3.88h-59.46c-23.41,0-42.46,23.35-42.46,52.06s19.05,52.06,42.46,52.06h59.46v3.88Z"/>
    <path class="cls-1" d="M201.44,675.67h-59.46c-25.55,0-46.34-25.1-46.34-55.95s20.79-55.95,46.34-55.95h59.46v3.88h-59.46c-23.41,0-42.46,23.35-42.46,52.06s19.05,52.06,42.46,52.06h59.46v3.88Z"/>
  </g>
</svg>