<svg xmlns="http://www.w3.org/2000/svg" viewBox="0 0 540 1080" width="540" height="1080" preserveAspectRatio="xMidYMid meet" style="width: 100%; height: 100%; transform: translate3d(0px, 0px, 0px); content-visibility: visible;"><defs><clipPath id="__lottie_element_217"><rect width="540" height="1080" x="0" y="0"></rect></clipPath></defs><g clip-path="url(#__lottie_element_217)"><g transform="matrix(1,0,0,1,0,0)" opacity="1" style="display: block;"><g opacity="1" transform="matrix(1,0,0,1,354.677001953125,180.05299377441406)"><path fill="rgb(77,55,62)" fill-opacity="1" d=" M26.711000442504883,-27.094999313354492 C32.64500045776367,-12.623000144958496 34.34700012207031,8.869000434875488 17.31999969482422,16.95599937438965 C-6.239999771118164,27.094999313354492 -34.34700012207031,15.708000183105469 -29.266000747680664,-12.984000205993652 C-28.520999908447266,-17.875999450683594 -27.29199981689453,-22.486000061035156 -25.489999771118164,-27.094999313354492 C-23.68199920654297,-22.48699951171875 -22.489999771118164,-17.865999221801758 -21.108999252319336,-13.5600004196167 C-18.832000732421875,-6.5 -16.645999908447266,0.49399998784065247 -9.687999725341797,2.555000066757202 C-4.289000034332275,4.297999858856201 5.513000011444092,4.308000087738037 10.916000366210938,2.572000026702881 C22.309999465942383,-1.5099999904632568 22.070999145507812,-17.01300048828125 26.711000442504883,-27.094999313354492z"></path></g></g><g transform="matrix(1,0,0,1,0,0)" opacity="1" style="display: block;"><g opacity="1" transform="matrix(1,0,0,1,316.03900146484375,163.76400756835938)"><path fill="rgb(77,55,62)" fill-opacity="1" d=" M80.6760025024414,-28.822999954223633 C68.11399841308594,-30.740999221801758 55.55099868774414,-31.836999893188477 42.95000076293945,-33.0099983215332 C2.7980000972747803,-36.257999420166016 -38.33300018310547,-37.393001556396484 -78.56300354003906,-37.08100128173828 C-77.89800262451172,-15.987000465393066 -80.6760025024414,8.78600025177002 -65.13999938964844,26.708999633789062 C-55.90399932861328,36.57099914550781 -39.07600021362305,37.393001556396484 -28.43199920654297,29.371000289916992 C-14.265000343322754,16.534000396728516 -15.12600040435791,-3.6589999198913574 -17.121999740600586,-21.231000900268555 C-9.685999870300293,-21.465999603271484 -2.2109999656677246,-21.77899932861328 5.223999977111816,-22.170000076293945 C29.761999130249023,-23.461000442504883 56.45100021362305,-25.261999130249023 80.6760025024414,-28.822999954223633z M-32.305999755859375,18.256000518798828 C-35.63199996948242,21.30900001525879 -39.50699996948242,22.444000244140625 -44.125,22.1299991607666 C-61.422000885009766,20.722000122070312 -61.8129997253418,-3.5420000553131104 -61.85300064086914,-20.525999069213867 C-47.64699935913086,-20.525999069213867 -33.402000427246094,-20.722000122070312 -19.195999145507812,-21.191999435424805 C-21.191999435424805,-7.025000095367432 -22.79599952697754,8.041999816894531 -32.305999755859375,18.256000518798828z"></path></g></g><g transform="matrix(1,0,0,1,0,0)" opacity="1" style="display: block;"><g opacity="1" transform="matrix(1,0,0,1,272.8059997558594,169.2100067138672)"><path fill="rgb(77,55,62)" fill-opacity="1" d=" M111.51300048828125,-66.3280029296875 C43.83700180053711,-140.25900268554688 -78.07099914550781,-96.20700073242188 -76.76499938964844,4.923999786376953 C-73.45700073242188,89.02799987792969 22.343000411987305,134.343994140625 90.98799896240234,86.46800231933594 C100.30000305175781,80.0790023803711 108.63200378417969,72.14600372314453 115.927001953125,63.198001861572266 C104.30000305175781,83.53700256347656 85.52100372314453,99.77100372314453 63.6879997253418,108.73699951171875 C-24.756000518798828,144.81300354003906 -115.927001953125,59.87699890136719 -88.73799896240234,-31.19099998474121 C-61.96900177001953,-120.99800109863281 57.47200012207031,-144.81300354003906 111.51300048828125,-66.3280029296875z"></path></g></g><g transform="matrix(1,0,0,1,0,0)" opacity="1" style="display: block;"><g opacity="1" transform="matrix(1,0,0,1,305.6080017089844,565.7150268554688)"><path fill="rgb(77,55,62)" fill-opacity="1" d=" M46.57099914550781,-41.3849983215332 C38.78300094604492,-46.74599838256836 29.70400047302246,-48.9379997253418 20.625,-50.189998626708984 C-1.9559999704360962,-53.24300003051758 -28.958999633789062,-53.51599884033203 -46.45199966430664,-36.21900177001953 C-49.54399871826172,-33.0880012512207 -52.0099983215332,-29.604999542236328 -54.04399871826172,-25.965999603271484 C-54.39699935913086,-37.82400131225586 -55.76599884033203,-49.56399917602539 -60.150001525878906,-61.22600173950195 C-67.66400146484375,-41.150001525878906 -66.44999694824219,-20.76099967956543 -65.98100280761719,0.019999999552965164 C-65.23699951171875,20.527000427246094 -63.827999114990234,40.95500183105469 -60.150001525878906,61.22600173950195 C-57.25299835205078,45.143001556396484 -55.72700119018555,29.01799964904785 -54.90599822998047,12.777999877929688 C-54.04399871826172,7.769000053405762 -52.987998962402344,2.8380000591278076 -51.696998596191406,-1.937000036239624 C-46.099998474121094,-23.187000274658203 -33.02899932861328,-33.24399948120117 -11.505000114440918,-34.262001037597656 C56.54999923706055,-37.62799835205078 48.05799865722656,-27.961000442504883 56.862998962402344,32.775001525878906 C59.05500030517578,9.99899959564209 67.66400146484375,-25.143999099731445 46.57099914550781,-41.3849983215332z"></path></g></g><g transform="matrix(1,0,0,1,0,0)" opacity="1" style="display: block;"><g opacity="1" transform="matrix(1,0,0,1,317.1929931640625,854.2160034179688)"><path fill="rgb(77,55,62)" fill-opacity="1" d=" M27.125,83.18099975585938 C25.562999725341797,86.3030014038086 23.93600082397461,89.51200103759766 22.29800033569336,92.73200225830078 C27.95800018310547,121.63700103759766 34.446998596191406,154.54200744628906 41.52199935913086,181.76100158691406 C39.60599899291992,147.0709991455078 36.07699966430664,108.06500244140625 31.98699951171875,73.1050033569336 C30.35300064086914,76.51799774169922 28.724000930786133,79.9010009765625 27.125,83.18099975585938z M13.854000091552734,-52.654998779296875 C10.567000389099121,-72.33999633789062 7.1620001792907715,-92.0250015258789 3.4830000400543213,-111.63099670410156 C20.27199935913086,-95.50800323486328 37.33399963378906,-79.65799713134766 54.98400115966797,-64.43499755859375 C38.507999420166016,-85.99800109863281 21.172000885009766,-106.77799987792969 3.5220000743865967,-127.3239974975586 C20.663000106811523,-143.83900451660156 36.70899963378906,-161.13600158691406 49.231998443603516,-181.76100158691406 C27.59000015258789,-170.3730010986328 9.119000434875488,-155.1490020751953 -8.569999694824219,-138.7899932861328 C-26.062999725341797,-122.08000183105469 -42.34400177001953,-104.58699798583984 -54.98400115966797,-83.6500015258789 C-38.665000915527344,-92.22100067138672 -24.184999465942383,-102.98300170898438 -10.447999954223633,-114.8010025024414 C-4.892000198364258,-67.17500305175781 1.9179999828338623,-19.743000030517578 9.862000465393066,27.493000030517578 C10.491999626159668,31.118999481201172 11.145000457763672,34.8120002746582 11.788999557495117,38.47999954223633 C15.753999710083008,31.159000396728516 19.937000274658203,23.72599983215332 24.332000732421875,16.229000091552734 C21.048999786376953,-6.879000186920166 17.53499984741211,-29.885000228881836 13.854000091552734,-52.654998779296875z"></path></g></g><g transform="matrix(1,0,0,1,0,0)" opacity="1" style="display: block;"><g opacity="1" transform="matrix(1,0,0,1,328.2749938964844,933.4030151367188)"><path fill="rgb(77,55,62)" fill-opacity="1" d=" M50.729000091552734,-102.59400177001953 C39.79800033569336,-65.6520004272461 24.250999450683594,-30.764999389648438 7.454999923706055,3.687000036239624 C-9.697999954223633,37.96500015258789 -27.976999282836914,71.4990005493164 -50.72999954223633,102.59400177001953 C-39.834999084472656,65.63800048828125 -24.281999588012695,30.753000259399414 -7.456999778747559,-3.687000036239624 C9.725000381469727,-37.94900131225586 28.007999420166016,-71.48100280761719 50.729000091552734,-102.59400177001953z"></path></g><g opacity="1" transform="matrix(1,0,0,1,389.9639892578125,808.6430053710938)"><path fill="rgb(77,55,62)" fill-opacity="1" d=" M8.194999694824219,8.664999961853027 C3.4089999198913574,13.190999984741211 -4.138999938964844,12.979999542236328 -8.664999961853027,8.194999694824219 C-13.190999984741211,3.4089999198913574 -12.980999946594238,-4.139999866485596 -8.194999694824219,-8.666000366210938 C-3.4089999198913574,-13.192000389099121 4.138999938964844,-12.980999946594238 8.664999961853027,-8.194999694824219 C13.190999984741211,-3.4100000858306885 12.980999946594238,4.138999938964844 8.194999694824219,8.664999961853027z"></path></g></g><g transform="matrix(1,0,0,1,-11.68701171875,-1.23699951171875)" opacity="1" style="display: block;"><g opacity="1" transform="matrix(1,0,0,1,414.71600341796875,445.9440002441406)"><path fill="rgb(77,55,62)" fill-opacity="1" d=" M50.209999084472656,140.64999389648438 C39.48699951171875,152.8990020751953 27.472999572753906,134.3489990234375 23.051000595092773,125.38700103759766 C15.732000350952148,110.8290023803711 11.074999809265137,95.52799987792969 7.357999801635742,80.06999969482422 C13.305999755859375,94.74500274658203 19.410999298095703,109.53800201416016 27.98200035095215,122.49099731445312 C30.64299964904785,126.48300170898438 33.459999084472656,130.2010040283203 36.7869987487793,133.41000366210938 C38,134.4669952392578 40.9739990234375,136.7760009765625 42.1870002746582,136.5800018310547 C42.775001525878906,136.46299743652344 42.65700149536133,136.46299743652344 43.28300094604492,135.64100646972656 C45.27899932861328,131.4929962158203 44.926998138427734,125.93499755859375 44.73099899291992,121.00399780273438 C41.483001708984375,89.93099975585938 28.099000930786133,60.854000091552734 18.981000900268555,31.150999069213867 C14.36299991607666,17.375999450683594 9.862000465393066,3.561000108718872 5.51800012588501,-10.291999816894531 C1.3700000047683716,-4.188000202178955 -5.635000228881836,-0.7039999961853027 -14.048999786376953,-3.444000005722046 C-43.08700180053711,-12.562000274658203 -63.672000885009766,-103.94200134277344 -64.72899627685547,-132.6269989013672 C-44.847999572753906,-100.9280014038086 -39.45899963378906,-60.854000091552734 -19.695999145507812,-30.094999313354492 C-16.683000564575195,-25.75 -12.758000373840332,-19.160999298095703 -8.491999626159668,-20.232999801635742 C-7.451000213623047,-20.493999481201172 -6.8480000495910645,-23.481000900268555 -6.573999881744385,-25.31999969482422 C-5.673999786376953,-36.27799987792969 -6.809000015258789,-47.31399917602539 -8.687999725341797,-58.388999938964844 C-17.297000885009766,-89.5009994506836 -24.655000686645508,-120.9260025024414 -30.132999420166016,-152.8990020751953 C-3.3259999752044678,-95.01899719238281 16.280000686645508,-34.595001220703125 33.85200119018555,26.493999481201172 C40.58300018310547,53.88800048828125 64.72899627685547,116.03500366210938 50.209999084472656,140.64999389648438z"></path></g></g><g transform="matrix(1,0,0,1,0,0)" opacity="1" style="display: block;"><g opacity="1" transform="matrix(1,0,0,1,198.08599853515625,390.60699462890625)"><path fill="rgb(77,55,62)" fill-opacity="1" d=" M49.25199890136719,91.65299987792969 C49.25199890136719,91.65299987792969 48.97800064086914,94.62799835205078 48.97800064086914,94.62799835205078 C48.78200149536133,95.60700225830078 49.36899948120117,96.58499908447266 47.374000549316406,97.56300354003906 C45.37799835205078,96.58499908447266 45.92599868774414,95.60700225830078 45.691001892089844,94.62799835205078 C45.691001892089844,94.62799835205078 45.37799835205078,91.73100280761719 45.37799835205078,91.73100280761719 C42.87300109863281,72.125 39.03799819946289,50.09299850463867 27.29800033569336,34.165000915527344 C24.714000701904297,31.034000396728516 24.63599967956543,30.9950008392334 22.993000030517578,30.722000122070312 C21.427000045776367,30.48699951171875 18.5310001373291,31.113000869750977 15.635000228881836,32.444000244140625 C2.994999885559082,38.5880012512207 -8.628000259399414,49.74100112915039 -19.233999252319336,59.60300064086914 C-30.386999130249023,70.20800018310547 -41.22700119018555,81.4000015258789 -52.45899963378906,92.4749984741211 C-52.49800109863281,92.51399993896484 -52.49800109863281,92.5530014038086 -52.5369987487793,92.59200286865234 C-52.5369987487793,92.59200286865234 -52.57699966430664,92.59200286865234 -52.57699966430664,92.59200286865234 C-44.51499938964844,32.2859992980957 -16.61199951171875,-49.819000244140625 21.349000930786133,-97.56300354003906 C17.944000244140625,-49.0359992980957 -4.870999813079834,11.270000457763672 -31.679000854492188,59.05400085449219 C-30.073999404907227,56.902000427246094 -28.4689998626709,54.78900146484375 -26.826000213623047,52.67599868774414 C-14.654999732971191,38.275001525878906 3.4240000247955322,15.380999565124512 24.635000228881836,16.006999969482422 C30.62299919128418,16.516000747680664 35.71099853515625,20.547000885009766 39.03799819946289,25.320999145507812 C52.577999114990234,45.20100021362305 50.6609992980957,69.19000244140625 49.25199890136719,91.65299987792969z"></path></g></g><g transform="matrix(1,0,0,1,0,0)" opacity="1" style="display: block;"><g opacity="1" transform="matrix(1,0,0,1,311.4570007324219,668.9089965820312)"><path fill="rgb(77,55,62)" fill-opacity="1" d=" M-38.108001708984375,-20.6560001373291 C-76.3759994506836,-10.800999641418457 -60.45899963378906,44.2869987487793 -23.54599952697754,28.395999908447266 C-20.72800064086914,26.981000900268555 -18.641000747680664,24.93600082397461 -16.520000457763672,22.368999481201172 C-6.605999946594238,9.32699966430664 -2.98799991607666,-6.504000186920166 5.986999988555908,-21.586000442504883 C12.083999633789062,-32.354000091552734 21.270000457763672,-42.45600128173828 32.67300033569336,-47.95800018310547 C43.375999450683594,-53.665000915527344 58.15399932861328,-52.76100158691406 66.62699890136719,-43.49300003051758 C74.08799743652344,-36.167999267578125 80.30500030517578,-23.16200065612793 72.97200012207031,-13.510000228881836 C71.23200225830078,-11.003000259399414 68.91999816894531,-9.133000373840332 66.62300109863281,-7.440000057220459 C70.08000183105469,-11.984999656677246 72.50900268554688,-17.35700035095215 71.63700103759766,-22.202999114990234 C70.68399810791016,-28.291000366210938 65.57499694824219,-33.1619987487793 60.63399887084961,-36.94200134277344 C43.659000396728516,-48.13999938964844 26.888999938964844,-28.139999389648438 19.80500030517578,-13.961000442504883 C6.664000034332275,13.045000076293945 -2.1019999980926514,53.66400146484375 -42.382999420166016,45.301998138427734 C-80.30500030517578,36.637001037597656 -78.67400360107422,-21.273000717163086 -38.108001708984375,-20.6560001373291z"></path></g></g><g transform="matrix(1,0,0,1,0,0)" opacity="1" style="display: block;"><g opacity="1" transform="matrix(1,0,0,1,137.21200561523438,493.2909851074219)"><path fill="rgb(77,55,62)" fill-opacity="1" d=" M45.24100112915039,-31.114999771118164 C44.242000579833984,-30.148000717163086 43.2400016784668,-29.177000045776367 42.242000579833984,-28.198999404907227 C60.297000885009766,-21.856000900268555 72.1050033569336,-11.593999862670898 72.1050033569336,-0.0010000000474974513 C72.1050033569336,19.226999282836914 39.757999420166016,34.86899948120117 0,34.86899948120117 C-39.757999420166016,34.86899948120117 -72.1050033569336,19.226999282836914 -72.1050033569336,-0.0010000000474974513 C-72.1050033569336,-19.22800064086914 -39.757999420166016,-34.86899948120117 0,-34.86899948120117 C0.4000000059604645,-34.86899948120117 0.7870000004768372,-34.84299850463867 1.184999942779541,-34.84000015258789 C1.437999963760376,-36.125 1.7070000171661377,-37.42599868774414 1.975000023841858,-38.72700119018555 C1.315999984741211,-38.736000061035156 0.6620000004768372,-38.75199890136719 0,-38.75199890136719 C-41.902000427246094,-38.75199890136719 -75.98799896240234,-21.368000030517578 -75.98799896240234,-0.0010000000474974513 C-75.98799896240234,21.729999542236328 -42.60900115966797,38.75199890136719 0,38.75199890136719 C42.60900115966797,38.75199890136719 75.98799896240234,21.729999542236328 75.98799896240234,-0.0010000000474974513 C75.98799896240234,-12.730999946594238 63.88399887084961,-24.047000885009766 45.24100112915039,-31.114999771118164z"></path></g><g opacity="1" transform="matrix(1,0,0,1,134.8090057373047,682.1740112304688)"><path fill="rgb(77,55,62)" fill-opacity="1" d=" M66.62699890136719,142.96400451660156 C66.62699890136719,142.96400451660156 15.449999809265137,142.96400451660156 15.449999809265137,142.96400451660156 C-33.63999938964844,142.96400451660156 -66.6259994506836,112.13800048828125 -66.6259994506836,66.25800323486328 C-66.6259994506836,66.25800323486328 -66.6259994506836,-142.96400451660156 -66.6259994506836,-142.96400451660156 C-66.6259994506836,-142.96400451660156 -62.74300003051758,-142.96400451660156 -62.74300003051758,-142.96400451660156 C-62.74300003051758,-142.96400451660156 -62.74300003051758,66.25800323486328 -62.74300003051758,66.25800323486328 C-62.74300003051758,109.81400299072266 -31.320999145507812,139.08099365234375 15.449999809265137,139.08099365234375 C15.449999809265137,139.08099365234375 66.62699890136719,139.08099365234375 66.62699890136719,139.08099365234375 C66.62699890136719,139.08099365234375 66.62699890136719,142.96400451660156 66.62699890136719,142.96400451660156z"></path></g><g opacity="1" transform="matrix(1,0,0,1,135.77999877929688,950.4320068359375)"><path fill="rgb(77,55,62)" fill-opacity="1" d=" M34.347999572753906,87.50800323486328 C34.347999572753906,87.50800323486328 -34.347999572753906,87.50800323486328 -34.347999572753906,87.50800323486328 C-52.680999755859375,87.50800323486328 -67.59700012207031,72.59300231933594 -67.59700012207031,54.2599983215332 C-67.59700012207031,54.2599983215332 -67.59700012207031,-54.25899887084961 -67.59700012207031,-54.25899887084961 C-67.59700012207031,-72.59200286865234 -52.680999755859375,-87.50800323486328 -34.347999572753906,-87.50800323486328 C-34.347999572753906,-87.50800323486328 65.65599822998047,-87.50800323486328 65.65599822998047,-87.50800323486328 C65.65599822998047,-87.50800323486328 65.65599822998047,-83.625 65.65599822998047,-83.625 C65.65599822998047,-83.625 -34.347999572753906,-83.625 -34.347999572753906,-83.625 C-50.54100036621094,-83.625 -63.7140007019043,-70.45099639892578 -63.7140007019043,-54.25899887084961 C-63.7140007019043,-54.25899887084961 -63.7140007019043,54.2599983215332 -63.7140007019043,54.2599983215332 C-63.7140007019043,70.4530029296875 -50.54100036621094,83.6259994506836 -34.347999572753906,83.6259994506836 C-34.347999572753906,83.6259994506836 34.347999572753906,83.6259994506836 34.347999572753906,83.6259994506836 C50.54100036621094,83.6259994506836 63.7140007019043,70.4530029296875 63.7140007019043,54.2599983215332 C63.7140007019043,54.2599983215332 63.7140007019043,20.648000717163086 63.7140007019043,20.648000717163086 C63.7140007019043,4.454999923706055 50.54100036621094,-8.718999862670898 34.347999572753906,-8.718999862670898 C34.347999572753906,-8.718999862670898 1.430999994277954,-8.718999862670898 1.430999994277954,-8.718999862670898 C1.430999994277954,-8.718999862670898 1.430999994277954,-12.60200023651123 1.430999994277954,-12.60200023651123 C1.430999994277954,-12.60200023651123 34.347999572753906,-12.60200023651123 34.347999572753906,-12.60200023651123 C52.680999755859375,-12.60200023651123 67.59700012207031,2.315000057220459 67.59700012207031,20.648000717163086 C67.59700012207031,20.648000717163086 67.59700012207031,54.2599983215332 67.59700012207031,54.2599983215332 C67.59700012207031,72.59300231933594 52.680999755859375,87.50800323486328 34.347999572753906,87.50800323486328z"></path></g><g opacity="1" transform="matrix(1,0,0,1,148.5330047607422,727.7369995117188)"><path fill="rgb(77,55,62)" fill-opacity="1" d=" M52.902000427246094,55.94599914550781 C52.902000427246094,55.94599914550781 -6.560999870300293,55.94599914550781 -6.560999870300293,55.94599914550781 C-32.112998962402344,55.94599914550781 -52.90299987792969,30.849000930786133 -52.90299987792969,-0.0010000000474974513 C-52.90299987792969,-30.850000381469727 -32.112998962402344,-55.94599914550781 -6.560999870300293,-55.94599914550781 C-6.560999870300293,-55.94599914550781 52.902000427246094,-55.94599914550781 52.902000427246094,-55.94599914550781 C52.902000427246094,-55.94599914550781 52.902000427246094,-52.06399917602539 52.902000427246094,-52.06399917602539 C52.902000427246094,-52.06399917602539 -6.560999870300293,-52.06399917602539 -6.560999870300293,-52.06399917602539 C-29.972999572753906,-52.06399917602539 -49.02000045776367,-28.709999084472656 -49.02000045776367,-0.0010000000474974513 C-49.02000045776367,28.70800018310547 -29.972999572753906,52.0629997253418 -6.560999870300293,52.0629997253418 C-6.560999870300293,52.0629997253418 52.902000427246094,52.0629997253418 52.902000427246094,52.0629997253418 C52.902000427246094,52.0629997253418 52.902000427246094,55.94599914550781 52.902000427246094,55.94599914550781z"></path></g><g opacity="1" transform="matrix(1,0,0,1,148.5330047607422,619.7260131835938)"><path fill="rgb(77,55,62)" fill-opacity="1" d=" M52.902000427246094,55.94599914550781 C52.902000427246094,55.94599914550781 -6.560999870300293,55.94599914550781 -6.560999870300293,55.94599914550781 C-32.112998962402344,55.94599914550781 -52.90299987792969,30.850000381469727 -52.90299987792969,0 C-52.90299987792969,-30.849000930786133 -32.112998962402344,-55.94599914550781 -6.560999870300293,-55.94599914550781 C-6.560999870300293,-55.94599914550781 52.902000427246094,-55.94599914550781 52.902000427246094,-55.94599914550781 C52.902000427246094,-55.94599914550781 52.902000427246094,-52.0629997253418 52.902000427246094,-52.0629997253418 C52.902000427246094,-52.0629997253418 -6.560999870300293,-52.0629997253418 -6.560999870300293,-52.0629997253418 C-29.972999572753906,-52.0629997253418 -49.02000045776367,-28.708999633789062 -49.02000045776367,0 C-49.02000045776367,28.708999633789062 -29.972999572753906,52.0629997253418 -6.560999870300293,52.0629997253418 C-6.560999870300293,52.0629997253418 52.902000427246094,52.0629997253418 52.902000427246094,52.0629997253418 C52.902000427246094,52.0629997253418 52.902000427246094,55.94599914550781 52.902000427246094,55.94599914550781z"></path></g></g></g></svg>